<?xml version="1.0" standalone="no"?>
<!DOCTYPE svg PUBLIC "-//W3C//DTD SVG 20010904//EN"
 "http://www.w3.org/TR/2001/REC-SVG-20010904/DTD/svg10.dtd">
<svg version="1.0" xmlns="http://www.w3.org/2000/svg"
 width="512" height="512" viewBox="0 0 500.000000 500.000000"
 preserveAspectRatio="xMidYMid meet">

<g transform="translate(0.000000,500.000000) scale(0.100000,-0.100000)"
fill="#000000" stroke="none">
<path d="M2705 4085 c-146 -37 -197 -56 -317 -116 -267 -134 -499 -368 -629
-634 -75 -156 -123 -324 -135 -475 -8 -94 -8 -94 -46 -74 -18 9 -68 41 -110
71 -96 67 -153 88 -220 80 -53 -7 -81 -22 -197 -104 -40 -29 -97 -60 -126 -68
-60 -18 -74 -42 -45 -77 17 -22 20 -22 66 -10 28 7 99 46 162 87 62 41 128 77
147 81 42 8 91 -14 213 -94 169 -111 201 -109 406 21 97 62 151 83 188 74 12
-4 48 -22 78 -41 268 -170 282 -171 495 -41 172 104 213 106 355 18 166 -103
229 -125 306 -104 22 6 87 40 145 76 126 79 176 100 222 91 19 -3 81 -38 138
-76 153 -103 240 -125 255 -65 8 33 -8 51 -54 60 -42 7 -104 41 -177 96 -100
75 -178 95 -262 65 -21 -7 -83 -43 -138 -78 -55 -36 -117 -71 -137 -77 -54
-18 -121 5 -245 82 -116 73 -172 92 -242 84 l-49 -6 -7 97 c-4 53 -5 193 -2
312 7 256 27 430 78 673 12 54 19 100 18 101 -2 2 -62 -11 -134 -29z m21 -102
c-12 -38 -46 -264 -56 -373 -17 -184 -23 -506 -12 -615 l11 -100 -27 -23 c-36
-30 -169 -98 -209 -107 -42 -8 -100 17 -203 90 -43 30 -95 62 -114 70 -79 33
-158 12 -286 -77 -36 -25 -80 -53 -97 -62 l-33 -17 0 29 c0 61 33 222 66 322
42 126 122 282 201 392 135 188 389 371 623 451 123 41 144 44 136 20z"/>
<path d="M1193 2615 c-18 -7 -73 -43 -123 -79 -50 -36 -110 -71 -133 -77 -23
-6 -47 -13 -53 -14 -20 -6 -23 -44 -4 -67 17 -22 20 -22 66 -10 29 8 96 45
160 88 61 40 125 79 141 85 41 14 75 -1 208 -90 181 -121 214 -120 413 11 134
88 167 98 222 69 23 -12 65 -39 93 -60 80 -58 158 -99 204 -107 58 -9 118 14
253 96 180 110 193 111 360 10 159 -96 179 -104 245 -104 67 0 85 7 215 92
110 72 164 96 198 87 15 -3 77 -40 138 -81 160 -107 245 -130 260 -69 9 34 -6
49 -65 64 -30 7 -85 37 -137 73 -188 130 -240 131 -431 5 -165 -109 -186 -109
-373 3 -63 37 -133 74 -154 80 -76 24 -189 -6 -281 -75 -41 -31 -143 -81 -182
-90 -41 -8 -112 23 -202 90 -83 62 -135 85 -191 85 -56 0 -107 -23 -221 -99
-150 -101 -181 -100 -337 7 -53 36 -113 72 -132 78 -46 17 -117 17 -157 -1z"/>
<path d="M1193 2305 c-18 -7 -73 -43 -123 -79 -50 -36 -110 -70 -133 -76 -63
-16 -64 -17 -70 -39 -7 -27 19 -61 46 -61 34 0 122 45 210 106 105 74 139 88
181 74 18 -6 83 -44 144 -85 109 -72 160 -95 212 -95 35 0 110 37 217 108 109
71 152 88 191 74 15 -5 77 -44 139 -85 183 -124 220 -124 432 2 72 43 146 82
164 85 45 8 96 -11 203 -77 220 -135 253 -137 433 -21 129 83 184 108 219 99
15 -3 77 -40 138 -81 160 -107 245 -130 260 -69 9 34 -6 49 -65 64 -30 7 -85
37 -137 73 -110 76 -157 98 -214 97 -63 0 -102 -16 -207 -86 -51 -34 -112 -69
-137 -78 -43 -17 -48 -17 -98 -1 -29 10 -91 41 -138 70 -124 78 -148 88 -216
94 -55 4 -71 1 -128 -26 -36 -17 -81 -42 -98 -55 -18 -14 -62 -39 -98 -57
-106 -54 -154 -44 -289 55 -159 117 -224 114 -418 -18 -142 -97 -175 -96 -331
11 -53 36 -113 72 -132 79 -46 16 -117 16 -157 -2z"/>
<path d="M1185 1991 c-22 -10 -78 -46 -124 -80 -46 -34 -103 -66 -125 -72 -62
-15 -63 -16 -69 -38 -7 -27 19 -61 46 -61 34 0 122 45 206 104 107 75 137 89
175 82 18 -3 81 -40 140 -81 198 -136 233 -136 446 4 106 70 149 87 188 73 15
-5 77 -44 139 -85 61 -42 131 -81 155 -87 63 -18 128 1 234 66 49 30 118 69
153 86 61 30 67 31 110 19 25 -7 89 -38 141 -70 126 -77 167 -97 216 -105 62
-11 109 6 223 80 129 83 184 108 219 99 15 -3 77 -40 138 -81 160 -107 245
-130 260 -69 9 34 -6 49 -65 64 -30 7 -85 37 -137 73 -186 129 -243 131 -417
14 -53 -35 -116 -72 -141 -81 -43 -17 -48 -17 -98 -1 -29 10 -91 41 -138 70
-122 77 -147 88 -211 93 -71 7 -129 -12 -209 -66 -31 -22 -86 -54 -121 -72
-105 -53 -153 -43 -288 56 -157 116 -225 114 -412 -13 -148 -101 -182 -100
-335 4 -52 36 -111 72 -129 80 -47 19 -122 17 -170 -5z"/>
<path d="M1695 1515 c-25 -24 -25 -24 -25 -235 l0 -210 50 0 50 0 0 200 0 200
30 0 30 0 0 -200 0 -200 50 0 50 0 0 210 c0 211 0 211 -25 235 -22 22 -32 25
-105 25 -73 0 -83 -3 -105 -25z"/>
<path d="M2194 1530 c-33 -13 -47 -60 -43 -149 5 -101 16 -114 102 -121 l62
-5 0 -55 c0 -55 0 -55 -32 -58 -31 -3 -33 -1 -33 27 0 30 -1 31 -50 31 l-50 0
0 -39 c0 -64 33 -93 108 -99 73 -5 106 2 132 28 17 17 20 34 20 115 0 88 -2
98 -25 120 -20 21 -34 25 -80 25 l-55 0 0 55 c0 54 0 55 30 55 25 0 30 -4 30
-25 0 -23 3 -25 50 -25 46 0 50 2 50 24 0 41 -20 83 -46 95 -29 13 -139 14
-170 1z"/>
<path d="M920 1300 l0 -230 50 0 50 0 0 90 0 90 50 0 50 0 0 45 0 45 -50 0
-50 0 0 55 0 55 55 0 55 0 0 40 0 40 -105 0 -105 0 0 -230z"/>
<path d="M1340 1300 l0 -230 50 0 50 0 0 230 0 230 -50 0 -50 0 0 -230z"/>
<path d="M2930 1300 l0 -230 105 0 105 0 0 40 0 40 -55 0 -55 0 0 55 0 55 50
0 50 0 0 40 0 40 -50 0 -50 0 0 55 0 55 55 0 55 0 0 40 0 40 -105 0 -105 0 0
-230z"/>
<path d="M3350 1300 l0 -230 50 0 50 0 0 95 0 95 30 0 30 0 0 -95 0 -95 50 0
50 0 0 103 c0 74 -4 108 -15 124 -13 18 -13 22 0 33 11 9 15 33 15 86 0 107
-9 114 -150 114 l-110 0 0 -230z m159 156 c7 -8 11 -37 9 -68 -3 -52 -4 -53
-35 -56 l-33 -3 0 70 c0 68 1 71 24 71 13 0 29 -6 35 -14z"/>
<path d="M3830 1300 l0 -230 50 0 50 0 0 90 0 90 50 0 c100 0 124 32 118 161
-5 112 -14 119 -159 119 l-109 0 0 -230z m170 90 l0 -70 -35 0 -35 0 0 70 0
70 35 0 35 0 0 -70z"/>
</g>
</svg>